<svg width="19" height="19" viewBox="0 0 19 19" fill="none" xmlns="http://www.w3.org/2000/svg">
<g clip-path="url(#clip0_17_7)">
<path d="M15 0H4C1.79086 0 0 1.79086 0 4V15C0 17.2091 1.79086 19 4 19H15C17.2091 19 19 17.2091 19 15V4C19 1.79086 17.2091 0 15 0Z" fill="#C5F900"/>
<path d="M6.28571 5H12.7143C13.4266 5 14 5.57343 14 6.28571V12.7143C14 13.4266 13.4266 14 12.7143 14H6.28571C5.57343 14 5 13.4266 5 12.7143V6.28571C5 5.57343 5.57343 5 6.28571 5Z" stroke="black" stroke-linecap="round" stroke-linejoin="round"/>
<path d="M6.92853 6.92853H7.57138" stroke="black" stroke-linecap="round" stroke-linejoin="round"/>
<path d="M8.21426 7.57136C8.04376 7.57136 7.88025 7.50363 7.75969 7.38307C7.63913 7.26251 7.5714 7.099 7.5714 6.9285C7.5714 6.75801 7.63913 6.59449 7.75969 6.47393C7.88025 6.35337 8.04376 6.28564 8.21426 6.28564C8.29868 6.28564 8.38227 6.30227 8.46027 6.33458C8.53827 6.36689 8.60913 6.41424 8.66883 6.47393C8.72852 6.53363 8.77588 6.6045 8.80818 6.68249C8.84049 6.76049 8.85712 6.84408 8.85712 6.9285C8.85712 7.01292 8.84049 7.09652 8.80818 7.17451C8.77588 7.25251 8.72852 7.32338 8.66883 7.38307C8.60913 7.44277 8.53827 7.49012 8.46027 7.52242C8.38227 7.55473 8.29868 7.57136 8.21426 7.57136Z" stroke="black" stroke-linecap="round" stroke-linejoin="round"/>
<path d="M8.85712 6.92854L12.0714 6.92853" stroke="black" stroke-linecap="round" stroke-linejoin="round"/>
<path d="M12.0714 9.5H11.4285" stroke="black" stroke-linecap="round" stroke-linejoin="round"/>
<path d="M10.7857 10.1428C10.9562 10.1428 11.1197 10.0751 11.2403 9.95454C11.3609 9.83398 11.4286 9.67047 11.4286 9.49997C11.4286 9.32948 11.3609 9.16596 11.2403 9.04541C11.1197 8.92485 10.9562 8.85712 10.7857 8.85712C10.6152 8.85712 10.4517 8.92485 10.3312 9.04541C10.2106 9.16596 10.1429 9.32948 10.1429 9.49997C10.1429 9.67047 10.2106 9.83398 10.3312 9.95454C10.4517 10.0751 10.6152 10.1428 10.7857 10.1428Z" stroke="black" stroke-linecap="round" stroke-linejoin="round"/>
<path d="M10.1428 9.50001L6.92853 9.5" stroke="black" stroke-linecap="round" stroke-linejoin="round"/>
<path d="M6.92853 12.0715H7.57138" stroke="black" stroke-linecap="round" stroke-linejoin="round"/>
<path d="M8.21426 12.7142C8.04376 12.7142 7.88025 12.6465 7.75969 12.526C7.63913 12.4054 7.5714 12.2419 7.5714 12.0714C7.5714 11.9009 7.63913 11.7374 7.75969 11.6168C7.88025 11.4963 8.04376 11.4285 8.21426 11.4285C8.29868 11.4285 8.38227 11.4452 8.46027 11.4775C8.53827 11.5098 8.60913 11.5571 8.66883 11.6168C8.72852 11.6765 8.77588 11.7474 8.80818 11.8254C8.84049 11.9034 8.85712 11.987 8.85712 12.0714C8.85712 12.1558 8.84049 12.2394 8.80818 12.3174C8.77588 12.3954 8.72852 12.4663 8.66883 12.526C8.60913 12.5856 8.53827 12.633 8.46027 12.6653C8.38227 12.6976 8.29868 12.7142 8.21426 12.7142Z" stroke="black" stroke-linecap="round" stroke-linejoin="round"/>
<path d="M8.85712 12.0715L12.0714 12.0715" stroke="black" stroke-linecap="round" stroke-linejoin="round"/>
</g>
<defs>
<clipPath id="clip0_17_7">
<rect width="19" height="19" fill="white"/>
</clipPath>
</defs>
</svg>
